<svg id="svg" version="1.1" xmlns="http://www.w3.org/2000/svg" xmlns:xlink="http://www.w3.org/1999/xlink" width="400" height="350.0776799585707" viewBox="0, 0, 400,350.0776799585707"><g id="svgg"><path id="path0" d="M205.179 66.370 C 203.862 66.786,199.322 69.506,193.518 73.355 C 181.354 81.422,170.378 92.900,164.621 103.573 C 163.052 106.483,159.825 119.619,159.991 122.424 C 160.253 126.845,161.745 130.541,164.645 133.954 L 165.955 135.496 164.334 137.260 C 159.990 141.989,156.168 146.501,153.476 150.078 L 152.074 151.942 150.705 157.431 C 149.952 160.451,149.284 163.107,149.221 163.335 C 149.157 163.563,149.861 162.501,150.785 160.974 C 154.941 154.105,161.289 146.264,169.596 137.739 L 171.729 135.550 170.272 134.554 C 156.738 125.307,164.145 102.690,186.867 83.880 C 194.145 77.855,205.472 70.659,207.812 70.574 L 208.948 70.533 209.468 68.416 C 209.754 67.251,209.940 66.249,209.880 66.189 C 209.663 65.972,205.988 66.114,205.179 66.370 M202.572 77.285 C 193.621 82.914,189.912 85.764,184.205 91.402 C 180.883 94.683,179.652 95.986,178.470 97.473 C 178.021 98.037,177.485 98.665,177.279 98.869 C 177.072 99.073,176.903 99.306,176.902 99.387 C 176.902 99.468,176.642 99.814,176.325 100.155 C 175.807 100.715,173.300 104.419,172.189 106.269 C 168.379 112.609,166.690 120.146,168.011 124.912 C 168.996 128.467,170.724 130.422,175.206 133.052 L 177.956 134.666 174.356 138.436 C 166.367 146.801,162.296 151.528,157.908 157.535 C 142.561 178.545,142.245 204.805,157.180 217.981 C 160.781 221.158,166.393 224.246,169.675 224.857 L 170.421 224.996 173.676 211.980 C 176.628 200.177,176.898 198.945,176.582 198.757 C 166.432 192.740,163.148 183.983,166.678 172.347 C 168.909 164.992,177.763 153.912,188.941 144.485 L 190.906 142.828 194.132 129.933 L 197.358 117.038 196.567 117.038 C 194.446 117.038,189.483 114.879,187.779 113.215 C 182.055 107.627,188.798 96.341,201.957 89.487 L 204.542 88.141 206.118 81.823 C 206.985 78.348,207.759 75.249,207.839 74.935 C 208.091 73.938,207.417 74.239,202.572 77.285 M201.579 93.523 C 194.899 97.122,188.056 106.237,189.600 109.476 C 190.318 110.980,194.370 112.865,197.082 112.957 L 198.308 112.998 198.768 111.186 C 199.021 110.189,199.169 109.372,199.096 109.370 C 197.312 109.321,193.889 107.896,193.889 107.202 C 193.889 105.673,198.825 99.948,201.637 98.215 C 202.164 97.891,203.571 92.797,203.132 92.806 C 203.004 92.809,202.305 93.131,201.579 93.523 M184.339 154.065 C 172.805 165.758,169.389 171.845,169.371 180.735 C 169.359 186.836,171.394 190.634,176.557 194.142 C 177.990 195.116,177.866 195.196,178.436 192.926 L 178.894 191.106 177.444 190.064 C 173.519 187.241,172.186 182.209,173.671 175.818 C 174.837 170.807,178.149 165.785,186.073 157.017 L 187.852 155.049 188.567 152.201 C 188.961 150.634,189.216 149.353,189.135 149.353 C 189.054 149.353,186.895 151.473,184.339 154.065 M140.796 197.053 L 139.605 201.864 140.012 203.314 C 141.497 208.602,145.546 216.635,147.578 218.321 C 148.255 218.882,147.781 218.954,143.375 218.954 L 138.847 218.954 137.953 215.950 C 137.460 214.298,137.002 212.947,136.934 212.947 C 136.866 212.947,136.422 214.512,135.947 216.425 L 135.083 219.903 135.641 221.810 L 136.199 223.717 147.178 223.711 L 158.156 223.705 157.535 223.246 C 148.382 216.473,142.850 206.329,142.373 195.443 C 142.308 193.962,142.195 192.635,142.122 192.496 C 142.048 192.356,141.452 194.407,140.796 197.053 M85.228 246.660 C 85.304 247.201,85.462 247.947,85.579 248.317 L 85.791 248.990 93.802 248.974 C 98.208 248.965,101.719 248.921,101.605 248.876 C 101.491 248.832,100.292 248.463,98.941 248.056 C 96.235 247.243,95.178 246.771,94.582 246.112 C 94.204 245.694,94.001 245.676,89.639 245.676 L 85.090 245.676 85.228 246.660 M127.232 246.142 C 127.396 246.398,127.848 247.144,128.236 247.799 L 128.942 248.990 133.773 248.990 L 138.605 248.990 138.065 248.110 C 137.769 247.626,137.321 246.881,137.070 246.454 L 136.613 245.679 131.773 245.677 L 126.933 245.676 127.232 246.142 M139.820 247.165 C 139.309 247.985,138.860 248.732,138.821 248.827 C 138.783 248.921,140.877 248.973,143.474 248.942 L 148.198 248.887 149.191 247.281 L 150.184 245.676 145.466 245.676 L 140.748 245.676 139.820 247.165 M162.940 246.349 C 163.002 246.719,163.149 247.465,163.266 248.006 L 163.480 248.990 171.590 248.978 L 179.700 248.966 177.110 248.187 C 174.267 247.331,172.786 246.691,172.230 246.077 C 171.893 245.704,171.554 245.676,167.347 245.676 L 162.828 245.676 162.940 246.349 M210.047 247.333 L 210.047 248.990 214.397 248.990 L 218.747 248.990 218.747 247.333 L 218.747 245.676 214.397 245.676 L 210.047 245.676 210.047 247.333 M237.804 247.333 L 237.804 248.990 242.154 248.990 L 246.504 248.990 246.504 247.333 L 246.504 245.676 242.154 245.676 L 237.804 245.676 237.804 247.333 M276.334 247.333 L 276.334 248.990 280.580 248.990 L 284.827 248.990 284.827 248.058 C 284.827 246.894,284.989 246.895,285.699 248.065 L 286.261 248.990 290.929 248.990 C 293.497 248.990,295.598 248.940,295.598 248.878 C 295.598 248.816,295.155 248.071,294.614 247.221 L 293.630 245.677 284.982 245.676 L 276.334 245.676 276.334 247.333 M298.032 247.194 C 297.491 248.026,297.048 248.770,297.048 248.848 C 297.048 248.926,299.126 248.990,301.665 248.990 L 306.283 248.990 306.888 247.954 C 307.220 247.385,307.566 246.919,307.656 246.919 C 307.746 246.919,307.820 247.385,307.820 247.954 L 307.820 248.990 312.066 248.990 L 316.313 248.990 316.313 247.333 L 316.313 245.676 307.664 245.678 L 299.016 245.681 298.032 247.194 " stroke="none" fill="#636366" fill-rule="evenodd"></path><path id="path1" d="M132.655 116.429 C 128.851 117.086,123.522 119.911,113.794 126.429 L 110.032 128.949 109.301 131.844 C 108.899 133.437,108.589 134.758,108.612 134.781 C 108.634 134.804,110.982 133.264,113.829 131.360 C 128.501 121.544,133.020 119.625,138.167 121.028 C 138.338 121.075,138.418 121.077,138.346 121.034 C 138.274 120.991,138.435 120.097,138.705 119.048 C 138.974 117.999,139.196 117.037,139.198 116.910 C 139.208 116.362,134.883 116.044,132.655 116.429 M159.758 118.281 C 159.758 118.679,159.801 118.843,159.853 118.643 C 159.905 118.444,159.905 118.118,159.853 117.918 C 159.801 117.719,159.758 117.882,159.758 118.281 M143.449 119.524 C 144.010 120.093,144.516 120.559,144.573 120.559 C 144.630 120.559,144.217 120.093,143.656 119.524 C 143.095 118.954,142.589 118.488,142.532 118.488 C 142.475 118.488,142.888 118.954,143.449 119.524 M142.454 125.010 C 142.643 125.408,142.835 125.696,142.880 125.651 C 142.975 125.556,142.346 124.288,142.204 124.288 C 142.152 124.288,142.264 124.613,142.454 125.010 M133.713 124.622 C 131.730 125.098,129.320 126.310,124.288 129.361 C 121.610 130.985,111.385 137.868,110.971 138.325 C 110.596 138.740,110.189 139.980,102.359 164.578 L 96.755 182.185 91.663 202.589 C 88.863 213.811,86.522 223.156,86.462 223.356 C 86.270 223.991,90.610 223.892,91.016 223.252 C 91.178 222.996,94.169 213.231,97.662 201.554 C 101.155 189.876,104.243 179.554,104.523 178.617 C 105.017 176.969,105.375 176.489,106.108 176.489 C 106.318 176.489,107.395 181.680,110.316 196.789 L 114.241 217.089 117.900 202.458 L 121.558 187.826 119.194 179.948 C 117.894 175.615,116.831 172.042,116.831 172.007 C 116.831 171.973,118.299 170.857,120.093 169.528 C 123.484 167.016,127.703 163.003,127.938 162.066 C 128.006 161.797,128.133 161.622,128.222 161.677 C 128.311 161.732,128.511 161.615,128.666 161.417 C 128.922 161.091,128.914 161.083,128.586 161.341 C 128.074 161.743,127.800 162.953,132.717 143.094 C 135.191 133.101,137.145 124.854,137.059 124.768 C 136.877 124.586,134.326 124.475,133.713 124.622 M147.762 131.331 C 147.762 132.071,147.799 132.374,147.845 132.004 C 147.891 131.634,147.891 131.028,147.845 130.658 C 147.799 130.287,147.762 130.590,147.762 131.331 M140.095 132.056 C 140.096 132.740,140.135 132.994,140.181 132.622 C 140.227 132.250,140.226 131.690,140.179 131.379 C 140.132 131.068,140.094 131.372,140.095 132.056 M164.992 134.645 C 165.437 135.101,165.848 135.474,165.905 135.474 C 165.962 135.474,165.644 135.101,165.199 134.645 C 164.754 134.190,164.344 133.817,164.287 133.817 C 164.230 133.817,164.547 134.190,164.992 134.645 M175.754 136.769 L 174.935 137.649 175.816 136.830 C 176.634 136.069,176.791 135.888,176.634 135.888 C 176.601 135.888,176.204 136.284,175.754 136.769 M164.256 137.079 L 163.542 137.856 164.319 137.142 C 165.042 136.478,165.191 136.302,165.033 136.302 C 164.998 136.302,164.649 136.652,164.256 137.079 M169.542 137.804 L 168.514 138.892 169.601 137.864 C 170.612 136.909,170.784 136.717,170.629 136.717 C 170.596 136.717,170.107 137.206,169.542 137.804 M127.270 139.272 C 129.447 142.204,125.391 153.749,120.574 158.331 C 118.237 160.555,109.588 165.798,109.089 165.294 C 108.928 165.131,115.468 143.214,115.795 142.823 C 115.966 142.618,117.877 141.577,120.041 140.508 L 123.977 138.566 125.406 138.625 C 126.701 138.679,126.875 138.739,127.270 139.272 M162.082 139.461 L 161.264 140.342 162.144 139.523 C 162.628 139.073,163.024 138.676,163.024 138.643 C 163.024 138.486,162.844 138.643,162.082 139.461 M166.546 140.963 C 166.043 141.476,165.678 141.895,165.735 141.895 C 165.792 141.895,166.250 141.476,166.753 140.963 C 167.256 140.451,167.621 140.031,167.564 140.031 C 167.507 140.031,167.049 140.451,166.546 140.963 M171.103 141.585 C 170.600 142.097,170.235 142.517,170.292 142.517 C 170.349 142.517,170.807 142.097,171.310 141.585 C 171.813 141.072,172.178 140.653,172.121 140.653 C 172.065 140.653,171.606 141.072,171.103 141.585 M160.215 141.533 L 159.606 142.206 160.280 141.598 C 160.907 141.031,161.048 140.860,160.888 140.860 C 160.852 140.860,160.549 141.163,160.215 141.533 M164.361 143.397 L 163.542 144.278 164.423 143.459 C 165.241 142.697,165.398 142.517,165.241 142.517 C 165.208 142.517,164.811 142.913,164.361 143.397 M168.294 144.640 L 167.685 145.313 168.358 144.705 C 168.729 144.370,169.032 144.067,169.032 144.032 C 169.032 143.872,168.861 144.013,168.294 144.640 M156.160 153.237 C 155.564 153.956,155.311 154.324,155.414 154.324 C 155.471 154.324,155.767 153.998,156.071 153.599 C 156.635 152.859,156.704 152.580,156.160 153.237 M127.699 168.255 L 126.463 169.549 127.758 168.313 C 128.470 167.633,129.052 167.050,129.052 167.018 C 129.052 166.865,128.848 167.052,127.699 168.255 M131.941 168.566 L 131.227 169.342 132.004 168.628 C 132.727 167.964,132.876 167.789,132.718 167.789 C 132.683 167.789,132.334 168.138,131.941 168.566 M124.299 171.173 C 123.565 171.761,122.592 172.579,122.138 172.991 L 121.312 173.740 122.334 177.175 L 123.356 180.609 124.645 175.494 C 125.353 172.680,125.936 170.308,125.939 170.223 C 125.951 169.922,125.622 170.113,124.299 171.173 M138.446 189.953 C 138.446 190.922,138.482 191.318,138.526 190.834 C 138.569 190.350,138.569 189.557,138.526 189.073 C 138.482 188.589,138.446 188.985,138.446 189.953 M142.179 190.575 C 142.179 191.771,142.213 192.260,142.255 191.662 C 142.297 191.064,142.297 190.085,142.255 189.487 C 142.213 188.889,142.179 189.379,142.179 190.575 M146.095 189.332 C 146.095 189.845,146.135 190.054,146.185 189.798 C 146.234 189.542,146.234 189.122,146.185 188.866 C 146.135 188.610,146.095 188.819,146.095 189.332 M146.100 191.818 C 146.100 192.444,146.139 192.701,146.187 192.387 C 146.234 192.074,146.234 191.561,146.187 191.248 C 146.139 190.935,146.100 191.191,146.100 191.818 M170.689 194.407 C 171.308 195.034,171.861 195.546,171.917 195.546 C 171.974 195.546,171.515 195.034,170.896 194.407 C 170.277 193.780,169.724 193.268,169.667 193.268 C 169.610 193.268,170.070 193.780,170.689 194.407 M142.786 218.901 C 143.788 218.939,145.373 218.939,146.307 218.901 C 147.242 218.862,146.422 218.831,144.485 218.832 C 142.548 218.832,141.783 218.863,142.786 218.901 M143.915 223.873 C 145.311 223.909,147.595 223.909,148.990 223.873 C 150.386 223.837,149.244 223.808,146.453 223.808 C 143.661 223.808,142.519 223.837,143.915 223.873 M86.109 239.513 C 85.830 240.111,85.543 240.810,85.473 241.067 C 85.402 241.323,85.299 241.696,85.243 241.895 C 85.148 242.234,85.438 242.254,89.608 242.198 L 94.074 242.138 94.783 241.430 C 96.587 239.625,100.657 239.655,104.713 241.503 C 106.326 242.238,106.427 242.256,108.545 242.199 L 110.720 242.141 111.548 240.874 C 112.004 240.177,112.549 239.341,112.760 239.016 L 113.143 238.426 99.880 238.426 L 86.617 238.426 86.109 239.513 M122.476 238.581 C 122.519 238.666,123.014 239.505,123.576 240.445 L 124.598 242.154 129.619 242.154 L 134.640 242.154 133.452 240.291 L 132.263 238.427 127.331 238.426 C 124.619 238.426,122.434 238.496,122.476 238.581 M144.019 240.160 C 143.421 241.114,142.931 241.953,142.931 242.024 C 142.931 242.096,145.099 242.154,147.748 242.154 L 152.564 242.154 153.586 240.445 C 154.149 239.505,154.643 238.666,154.686 238.581 C 154.728 238.496,152.590 238.426,149.935 238.426 L 145.106 238.426 144.019 240.160 M164.054 239.099 C 163.684 239.699,163.024 241.547,163.024 241.981 C 163.024 242.072,165.005 242.171,167.426 242.202 L 171.828 242.258 172.320 241.679 C 174.108 239.577,178.587 239.581,182.927 241.687 C 183.808 242.115,184.486 242.395,184.432 242.310 C 184.379 242.224,185.233 242.154,186.328 242.154 C 187.604 242.154,188.275 242.229,188.193 242.361 C 188.122 242.475,188.108 242.569,188.160 242.569 C 188.266 242.569,190.782 238.691,190.782 238.528 C 190.782 238.472,184.861 238.426,177.625 238.426 L 164.468 238.426 164.054 239.099 M197.825 239.772 L 197.825 241.119 203.936 241.119 L 210.047 241.119 210.047 241.636 L 210.047 242.154 214.397 242.154 L 218.747 242.154 218.747 241.636 L 218.747 241.119 224.858 241.119 L 230.968 241.119 230.968 239.772 L 230.968 238.426 214.397 238.426 L 197.825 238.426 197.825 239.772 M237.804 240.290 L 237.804 242.154 242.154 242.154 L 246.504 242.154 246.504 241.429 L 246.504 240.704 257.276 240.704 L 268.048 240.704 268.048 239.565 L 268.048 238.426 252.926 238.426 L 237.804 238.426 237.804 240.290 M276.334 240.285 L 276.334 242.144 283.988 242.201 L 291.642 242.258 291.306 241.740 C 291.121 241.455,290.552 240.593,290.043 239.824 L 289.116 238.426 282.725 238.426 L 276.334 238.426 276.334 240.285 M302.518 239.927 C 301.984 240.753,301.425 241.616,301.275 241.844 C 301.005 242.256,301.045 242.258,308.658 242.201 L 316.313 242.144 316.313 240.285 L 316.313 238.426 309.901 238.426 L 303.490 238.426 302.518 239.927 M218.828 245.676 C 218.828 247.214,218.861 247.843,218.900 247.074 C 218.940 246.305,218.940 245.047,218.900 244.278 C 218.861 243.509,218.828 244.138,218.828 245.676 M276.208 245.676 C 276.208 247.214,276.240 247.843,276.280 247.074 C 276.320 246.305,276.320 245.047,276.280 244.278 C 276.240 243.509,276.208 244.138,276.208 245.676 M316.394 245.676 C 316.394 247.214,316.427 247.843,316.466 247.074 C 316.506 246.305,316.506 245.047,316.466 244.278 C 316.427 243.509,316.394 244.138,316.394 245.676 M84.982 243.915 C 84.985 244.371,85.027 244.533,85.077 244.275 C 85.126 244.017,85.124 243.645,85.072 243.447 C 85.021 243.249,84.980 243.459,84.982 243.915 M150.519 245.313 L 150.147 245.987 150.574 245.469 C 150.952 245.009,151.120 244.640,150.951 244.640 C 150.919 244.640,150.724 244.943,150.519 245.313 M84.982 245.572 C 84.985 246.028,85.027 246.190,85.077 245.932 C 85.126 245.675,85.124 245.302,85.072 245.104 C 85.021 244.906,84.980 245.117,84.982 245.572 M209.916 246.919 C 209.916 248.115,209.950 248.604,209.992 248.006 C 210.034 247.408,210.034 246.429,209.992 245.831 C 209.950 245.233,209.916 245.722,209.916 246.919 M246.580 246.815 C 246.581 247.954,246.615 248.394,246.657 247.792 C 246.699 247.190,246.699 246.258,246.656 245.721 C 246.614 245.183,246.580 245.676,246.580 246.815 M85.344 268.558 C 85.344 268.751,87.769 270.291,89.232 271.027 L 90.737 271.785 99.845 271.785 L 108.953 271.785 109.820 271.238 C 110.805 270.616,112.688 268.911,112.688 268.641 C 112.688 268.542,106.547 268.462,99.016 268.462 C 91.497 268.462,85.344 268.505,85.344 268.558 M134.231 270.119 L 134.231 271.776 138.581 271.776 L 142.931 271.776 142.931 270.119 L 142.931 268.462 138.581 268.462 L 134.231 268.462 134.231 270.119 M163.024 268.538 C 163.024 268.726,166.034 270.606,167.236 271.169 L 168.570 271.793 177.622 271.781 C 184.907 271.771,186.783 271.712,187.227 271.482 C 188.023 271.068,189.152 270.133,189.937 269.239 L 190.618 268.462 176.821 268.462 C 169.233 268.462,163.024 268.496,163.024 268.538 M210.047 270.119 L 210.047 271.776 214.397 271.776 L 218.747 271.776 218.747 270.119 L 218.747 268.462 214.397 268.462 L 210.047 268.462 210.047 270.119 M237.804 270.119 L 237.804 271.776 253.030 271.776 L 268.255 271.776 268.255 270.119 L 268.255 268.462 253.030 268.462 L 237.804 268.462 237.804 270.119 M276.334 270.119 L 276.334 271.776 280.580 271.776 L 284.827 271.776 284.827 270.119 L 284.827 268.462 280.580 268.462 L 276.334 268.462 276.334 270.119 M307.820 270.119 L 307.820 271.776 312.066 271.776 L 316.313 271.776 316.313 270.119 L 316.313 268.462 312.066 268.462 L 307.820 268.462 307.820 270.119 " stroke="none" fill="#535454" fill-rule="evenodd"></path><path id="path2" d="M127.343 117.985 C 126.540 118.421,126.631 118.571,127.447 118.156 C 128.228 117.759,128.366 117.656,128.103 117.668 C 127.998 117.672,127.657 117.815,127.343 117.985 M125.272 119.123 C 124.845 119.349,124.495 119.580,124.495 119.636 C 124.495 119.693,124.868 119.549,125.324 119.316 C 125.779 119.084,126.152 118.849,126.152 118.794 C 126.152 118.659,126.151 118.659,125.272 119.123 M143.138 118.967 C 143.138 119.003,143.441 119.306,143.811 119.640 L 144.485 120.249 143.876 119.575 C 143.309 118.948,143.138 118.807,143.138 118.967 M122.890 120.471 C 122.178 120.875,121.595 121.253,121.595 121.312 C 121.595 121.426,123.847 120.200,124.174 119.907 C 124.538 119.581,124.191 119.733,122.890 120.471 M117.533 123.734 C 108.018 129.793,104.893 132.200,103.753 134.344 C 103.452 134.908,96.951 155.039,89.304 179.079 L 75.401 222.787 75.401 243.346 L 75.401 263.905 75.913 263.905 C 76.282 263.905,76.391 263.991,76.305 264.215 C 76.205 264.474,76.442 264.526,77.727 264.526 L 79.269 264.526 79.407 251.752 C 79.482 244.727,79.544 235.519,79.544 231.290 L 79.544 223.602 81.801 216.462 C 99.834 159.397,107.002 137.158,107.657 136.239 C 108.117 135.594,109.761 134.371,114.028 131.497 C 117.190 129.367,119.837 127.558,119.910 127.477 C 120.225 127.126,118.317 128.345,113.655 131.473 C 110.906 133.318,108.638 134.807,108.614 134.783 C 108.590 134.759,108.898 133.437,109.298 131.844 L 110.025 128.949 112.953 126.981 C 114.563 125.898,116.836 124.404,118.003 123.660 C 120.022 122.371,120.533 122.009,120.331 122.009 C 120.282 122.009,119.023 122.785,117.533 123.734 M140.238 122.281 C 140.238 122.317,140.541 122.620,140.911 122.955 L 141.585 123.563 140.976 122.890 C 140.409 122.262,140.238 122.121,140.238 122.281 M125.893 123.785 C 125.119 124.205,125.166 124.380,125.945 123.977 C 126.287 123.800,126.567 123.612,126.567 123.558 C 126.567 123.424,126.544 123.432,125.893 123.785 M124.443 124.614 C 123.669 125.034,123.716 125.209,124.495 124.806 C 124.837 124.629,125.117 124.440,125.117 124.386 C 125.117 124.253,125.094 124.260,124.443 124.614 M130.036 125.856 C 129.262 126.277,129.309 126.452,130.088 126.049 C 130.430 125.872,130.709 125.683,130.709 125.629 C 130.709 125.496,130.687 125.503,130.036 125.856 M120.818 126.798 C 120.112 127.250,119.884 127.553,120.508 127.210 C 120.983 126.949,121.727 126.373,121.595 126.369 C 121.538 126.368,121.189 126.560,120.818 126.798 M128.172 126.892 C 127.398 127.312,127.445 127.487,128.224 127.084 C 128.566 126.908,128.845 126.719,128.845 126.665 C 128.845 126.532,128.823 126.539,128.172 126.892 M116.822 134.031 C 110.300 138.394,110.555 138.174,110.018 139.920 C 109.806 140.608,107.563 147.649,105.033 155.567 C 102.502 163.485,97.123 180.357,93.079 193.061 C 89.036 205.764,85.175 217.855,84.500 219.930 C 83.825 222.005,83.273 223.753,83.273 223.814 C 83.273 223.875,84.927 223.906,86.950 223.882 C 89.388 223.853,89.907 223.815,88.492 223.771 C 86.589 223.711,86.369 223.665,86.464 223.348 C 86.523 223.153,88.863 213.811,91.663 202.589 L 96.755 182.185 102.359 164.578 C 110.189 139.980,110.596 138.740,110.971 138.325 C 111.154 138.123,113.830 136.266,116.916 134.199 C 120.002 132.133,122.616 130.362,122.724 130.265 C 123.349 129.703,122.117 130.489,116.822 134.031 M123.666 138.798 C 123.440 138.951,123.523 138.970,123.977 138.869 C 124.739 138.699,124.904 138.580,124.374 138.584 C 124.156 138.586,123.837 138.682,123.666 138.798 M122.216 139.410 C 121.818 139.628,121.585 139.807,121.699 139.807 C 121.813 139.807,122.232 139.628,122.631 139.410 C 123.030 139.191,123.263 139.013,123.149 139.013 C 123.035 139.013,122.615 139.191,122.216 139.410 M117.038 141.986 C 115.888 142.586,115.449 143.059,115.292 143.863 L 115.171 144.485 115.407 143.863 C 115.748 142.967,115.963 142.751,117.077 142.186 C 117.625 141.909,118.074 141.636,118.074 141.581 C 118.074 141.444,118.088 141.439,117.038 141.986 M114.878 145.121 C 114.801 145.425,114.779 145.713,114.828 145.762 C 114.877 145.811,114.979 145.602,115.055 145.299 C 115.131 144.995,115.154 144.707,115.105 144.658 C 115.056 144.609,114.954 144.817,114.878 145.121 M114.158 147.613 C 113.906 148.481,113.737 149.228,113.783 149.274 C 113.828 149.319,114.072 148.646,114.324 147.778 C 114.576 146.910,114.746 146.163,114.700 146.117 C 114.654 146.072,114.411 146.745,114.158 147.613 M113.428 150.092 C 113.351 150.396,113.329 150.684,113.378 150.733 C 113.427 150.782,113.529 150.574,113.605 150.270 C 113.681 149.966,113.704 149.678,113.655 149.629 C 113.606 149.580,113.504 149.789,113.428 150.092 M112.914 151.857 C 112.774 152.325,112.697 152.745,112.744 152.792 C 112.790 152.839,112.943 152.494,113.083 152.027 C 113.223 151.559,113.300 151.139,113.253 151.092 C 113.207 151.045,113.054 151.390,112.914 151.857 M124.234 153.358 C 123.806 154.174,123.604 154.656,123.785 154.428 C 124.185 153.924,125.170 152.030,125.079 151.939 C 125.043 151.904,124.662 152.542,124.234 153.358 M112.392 153.614 C 112.316 153.918,112.293 154.206,112.342 154.255 C 112.391 154.304,112.493 154.095,112.569 153.792 C 112.646 153.488,112.668 153.200,112.619 153.151 C 112.570 153.102,112.468 153.310,112.392 153.614 M111.878 155.379 C 111.738 155.846,111.661 156.267,111.708 156.314 C 111.755 156.360,111.907 156.016,112.047 155.548 C 112.188 155.081,112.264 154.660,112.217 154.613 C 112.171 154.567,112.018 154.911,111.878 155.379 M121.491 157.168 C 120.247 158.525,119.197 159.405,116.411 161.429 C 115.542 162.059,116.451 161.549,117.747 160.678 C 119.057 159.797,121.982 157.100,122.662 156.145 C 123.301 155.247,123.059 155.459,121.491 157.168 M111.051 158.177 C 110.799 159.045,110.630 159.793,110.676 159.838 C 110.721 159.884,110.965 159.211,111.217 158.343 C 111.469 157.475,111.638 156.727,111.593 156.682 C 111.547 156.636,111.304 157.309,111.051 158.177 M110.221 160.972 C 110.081 161.439,110.004 161.860,110.051 161.907 C 110.097 161.953,110.250 161.609,110.390 161.141 C 110.530 160.674,110.607 160.253,110.560 160.206 C 110.514 160.160,110.361 160.504,110.221 160.972 M128.715 161.307 C 128.160 161.957,127.814 162.423,127.946 162.342 C 128.235 162.164,129.961 160.124,129.822 160.124 C 129.768 160.124,129.270 160.656,128.715 161.307 M112.584 163.448 C 109.056 165.298,109.106 165.281,109.379 164.564 C 109.490 164.272,109.574 163.923,109.566 163.788 C 109.558 163.653,109.418 163.907,109.254 164.353 C 109.091 164.798,109.008 165.214,109.070 165.276 C 109.190 165.396,114.805 162.621,115.491 162.103 C 116.172 161.588,115.815 161.753,112.584 163.448 M109.699 162.728 C 109.623 163.032,109.600 163.320,109.649 163.369 C 109.698 163.418,109.800 163.210,109.876 162.906 C 109.953 162.602,109.975 162.314,109.926 162.265 C 109.877 162.216,109.775 162.425,109.699 162.728 M126.970 163.387 L 126.256 164.164 127.033 163.450 C 127.460 163.057,127.809 162.708,127.809 162.673 C 127.809 162.515,127.634 162.664,126.970 163.387 M124.392 166.072 C 123.255 167.159,123.012 167.445,123.770 166.805 C 124.976 165.785,126.535 164.257,126.348 164.277 C 126.297 164.283,125.417 165.090,124.392 166.072 M128.342 167.328 C 126.869 168.891,126.340 169.518,127.167 168.721 C 128.578 167.359,131.254 164.468,131.093 164.479 C 131.053 164.482,129.815 165.764,128.342 167.328 M120.974 168.850 C 119.311 170.131,118.879 170.574,120.183 169.661 C 121.235 168.924,122.591 167.803,122.424 167.809 C 122.367 167.811,121.714 168.280,120.974 168.850 M130.295 170.331 C 129.099 171.499,127.580 172.952,126.919 173.561 C 126.258 174.169,125.746 174.728,125.780 174.801 C 125.814 174.875,127.380 173.425,129.259 171.578 C 131.139 169.732,132.631 168.218,132.574 168.215 C 132.517 168.211,131.491 169.163,130.295 170.331 M123.908 171.298 C 123.072 171.956,122.140 172.762,121.836 173.090 C 121.304 173.665,121.310 173.663,122.009 173.049 C 122.408 172.698,123.313 171.975,124.020 171.441 C 125.093 170.632,125.765 170.012,125.491 170.084 C 125.456 170.094,124.744 170.640,123.908 171.298 M118.384 170.810 L 117.763 171.344 118.436 170.899 C 118.806 170.654,119.109 170.413,119.109 170.364 C 119.109 170.209,119.022 170.263,118.384 170.810 M117.067 172.760 C 117.067 172.931,117.147 173.257,117.245 173.485 C 117.357 173.746,117.423 173.785,117.423 173.589 C 117.423 173.418,117.343 173.092,117.245 172.864 C 117.133 172.603,117.067 172.564,117.067 172.760 M105.402 176.704 C 105.066 176.899,104.267 178.909,104.451 179.093 C 104.501 179.143,104.660 178.788,104.803 178.303 C 105.087 177.343,105.558 176.696,105.972 176.696 C 106.117 176.696,106.278 176.859,106.331 177.059 C 106.402 177.331,106.431 177.306,106.449 176.955 C 106.475 176.450,106.023 176.341,105.402 176.704 M126.389 176.903 C 126.389 177.074,126.469 177.400,126.567 177.628 C 126.679 177.889,126.745 177.928,126.745 177.732 C 126.745 177.561,126.664 177.235,126.567 177.007 C 126.454 176.746,126.389 176.707,126.389 176.903 M122.867 179.389 C 122.867 179.560,122.947 179.886,123.045 180.114 C 123.157 180.375,123.223 180.413,123.223 180.218 C 123.223 180.047,123.143 179.720,123.045 179.492 C 122.933 179.231,122.867 179.193,122.867 179.389 M104.106 179.922 C 104.030 180.225,104.007 180.513,104.056 180.562 C 104.105 180.611,104.207 180.403,104.283 180.099 C 104.360 179.796,104.382 179.507,104.333 179.458 C 104.284 179.410,104.182 179.618,104.106 179.922 M107.144 181.046 C 107.144 181.331,107.215 181.844,107.302 182.185 C 107.443 182.740,107.460 182.751,107.460 182.289 C 107.460 182.004,107.389 181.491,107.302 181.150 C 107.161 180.595,107.144 180.584,107.144 181.046 M103.592 181.686 C 103.452 182.154,103.376 182.575,103.422 182.621 C 103.469 182.668,103.622 182.323,103.762 181.856 C 103.902 181.388,103.978 180.968,103.932 180.921 C 103.885 180.874,103.732 181.219,103.592 181.686 M102.765 184.485 C 102.513 185.353,102.344 186.100,102.390 186.146 C 102.435 186.191,102.679 185.519,102.931 184.650 C 103.183 183.782,103.352 183.035,103.307 182.989 C 103.261 182.944,103.018 183.617,102.765 184.485 M101.935 187.279 C 101.795 187.747,101.718 188.168,101.765 188.214 C 101.812 188.261,101.964 187.916,102.104 187.449 C 102.245 186.981,102.321 186.561,102.274 186.514 C 102.228 186.467,102.075 186.812,101.935 187.279 M138.433 187.364 C 138.435 187.934,138.475 188.142,138.523 187.827 C 138.570 187.512,138.569 187.046,138.520 186.792 C 138.471 186.537,138.432 186.794,138.433 187.364 M108.387 187.468 C 108.387 187.752,108.458 188.265,108.545 188.607 C 108.686 189.161,108.703 189.172,108.703 188.711 C 108.703 188.426,108.632 187.913,108.545 187.571 C 108.404 187.017,108.387 187.006,108.387 187.468 M101.313 189.351 C 101.173 189.818,101.097 190.239,101.144 190.286 C 101.190 190.332,101.343 189.988,101.483 189.520 C 101.623 189.053,101.700 188.632,101.653 188.585 C 101.606 188.539,101.454 188.883,101.313 189.351 M121.831 188.711 C 121.831 188.881,121.911 189.208,122.009 189.436 C 122.122 189.697,122.187 189.735,122.187 189.539 C 122.187 189.368,122.107 189.042,122.009 188.814 C 121.897 188.553,121.831 188.515,121.831 188.711 M100.692 191.422 C 100.552 191.890,100.475 192.310,100.522 192.357 C 100.569 192.404,100.721 192.059,100.862 191.592 C 101.002 191.124,101.078 190.704,101.031 190.657 C 100.985 190.610,100.832 190.955,100.692 191.422 M122.453 190.782 C 122.453 190.953,122.533 191.279,122.631 191.507 C 122.743 191.768,122.809 191.806,122.809 191.611 C 122.809 191.440,122.729 191.113,122.631 190.886 C 122.519 190.624,122.453 190.586,122.453 190.782 M138.440 192.853 C 138.440 193.594,138.478 193.897,138.524 193.527 C 138.570 193.156,138.570 192.550,138.524 192.180 C 138.478 191.810,138.440 192.113,138.440 192.853 M100.071 193.494 C 99.931 193.961,99.854 194.382,99.901 194.429 C 99.947 194.475,100.100 194.131,100.240 193.663 C 100.380 193.196,100.457 192.775,100.410 192.728 C 100.363 192.682,100.211 193.026,100.071 193.494 M146.086 193.475 C 146.086 193.874,146.129 194.037,146.181 193.837 C 146.233 193.638,146.233 193.312,146.181 193.112 C 146.129 192.913,146.086 193.076,146.086 193.475 M109.611 193.786 C 109.604 194.013,109.725 194.759,109.879 195.443 C 110.033 196.126,110.165 196.499,110.172 196.271 C 110.178 196.044,110.058 195.298,109.903 194.614 C 109.749 193.931,109.617 193.558,109.611 193.786 M142.358 194.303 C 142.358 194.702,142.400 194.865,142.452 194.666 C 142.505 194.467,142.505 194.140,142.452 193.941 C 142.400 193.742,142.358 193.905,142.358 194.303 M99.449 195.565 C 99.309 196.033,99.233 196.453,99.279 196.500 C 99.326 196.547,99.479 196.202,99.619 195.735 C 99.759 195.267,99.835 194.846,99.789 194.800 C 99.742 194.753,99.589 195.098,99.449 195.565 M138.629 196.582 C 138.629 196.981,138.672 197.144,138.724 196.945 C 138.776 196.745,138.776 196.419,138.724 196.220 C 138.672 196.020,138.629 196.183,138.629 196.582 M315.356 199.566 L 314.512 202.964 316.249 208.836 C 317.205 212.065,318.589 216.688,319.325 219.109 L 320.663 223.510 320.663 230.346 L 320.663 237.183 321.906 237.183 C 322.872 237.183,323.149 237.252,323.149 237.494 C 323.149 237.701,323.356 237.804,323.770 237.804 L 324.392 237.804 324.391 230.502 L 324.391 223.200 323.805 221.025 C 322.739 217.071,316.446 196.168,316.322 196.168 C 316.254 196.168,315.820 197.697,315.356 199.566 M98.204 199.706 C 97.722 201.313,97.364 202.664,97.409 202.709 C 97.454 202.754,97.885 201.476,98.367 199.868 C 98.848 198.261,99.206 196.910,99.162 196.866 C 99.117 196.821,98.686 198.099,98.204 199.706 M96.963 203.851 C 96.823 204.319,96.747 204.739,96.793 204.786 C 96.840 204.832,96.993 204.488,97.133 204.021 C 97.273 203.553,97.349 203.132,97.303 203.086 C 97.256 203.039,97.104 203.383,96.963 203.851 M126.596 204.661 C 126.596 204.832,126.676 205.158,126.774 205.386 C 126.886 205.647,126.952 205.685,126.952 205.489 C 126.952 205.318,126.872 204.992,126.774 204.764 C 126.661 204.503,126.596 204.465,126.596 204.661 M93.958 213.935 C 92.501 218.803,91.176 222.996,91.014 223.252 C 90.853 223.509,90.808 223.718,90.915 223.718 C 91.229 223.718,96.930 205.405,96.690 205.166 C 96.646 205.121,95.416 209.068,93.958 213.935 M311.153 216.388 C 309.859 221.588,309.839 221.712,310.131 222.654 L 310.429 223.615 313.499 223.672 C 316.370 223.726,316.559 223.706,316.422 223.361 C 316.342 223.159,315.471 220.313,314.488 217.038 C 313.505 213.762,312.649 211.082,312.587 211.082 C 312.524 211.082,311.878 213.470,311.153 216.388 M155.153 216.326 C 155.153 216.361,155.456 216.664,155.826 216.999 L 156.499 217.607 155.891 216.934 C 155.324 216.307,155.153 216.166,155.153 216.326 M138.976 218.811 C 139.069 218.903,139.600 218.949,140.158 218.911 L 141.170 218.844 139.989 218.743 C 139.339 218.688,138.883 218.719,138.976 218.811 M135.941 223.511 C 136.011 223.767,136.516 223.824,138.805 223.832 L 141.585 223.842 138.900 223.774 C 137.095 223.728,136.157 223.623,136.036 223.453 C 135.907 223.271,135.880 223.288,135.941 223.511 M115.380 223.770 C 115.381 223.856,119.226 223.905,123.925 223.880 C 128.625 223.854,131.119 223.808,129.467 223.777 C 121.823 223.632,115.380 223.629,115.380 223.770 M153.030 223.872 C 153.969 223.911,155.508 223.911,156.447 223.872 C 157.387 223.834,156.618 223.803,154.738 223.803 C 152.859 223.803,152.090 223.834,153.030 223.872 M95.426 232.542 C 90.847 233.369,86.539 236.699,85.669 240.083 C 85.595 240.368,85.779 240.111,86.077 239.513 L 86.619 238.426 99.873 238.426 C 110.419 238.426,113.095 238.479,112.974 238.685 C 112.890 238.827,112.360 239.643,111.796 240.497 C 110.369 242.657,111.081 241.863,112.760 239.422 L 114.141 237.414 113.466 236.907 C 108.381 233.091,101.543 231.436,95.426 232.542 M173.278 232.503 C 170.239 233.096,167.704 234.391,165.885 236.278 C 164.937 237.262,163.435 239.529,163.442 239.967 C 163.444 240.088,163.657 239.814,163.915 239.358 L 164.384 238.529 177.583 238.476 C 184.842 238.447,190.782 238.479,190.782 238.548 C 190.782 238.616,190.611 238.920,190.402 239.222 C 189.872 239.988,189.706 240.290,189.816 240.290 C 190.076 240.290,191.882 237.349,191.699 237.223 C 191.585 237.144,190.935 236.696,190.256 236.227 C 185.620 233.027,178.543 231.475,173.278 232.503 M118.695 232.962 C 118.695 233.135,122.860 239.669,122.970 239.669 C 123.017 239.669,122.911 239.389,122.734 239.047 L 122.413 238.426 127.338 238.426 L 132.263 238.426 132.852 239.358 C 133.176 239.871,133.489 240.290,133.549 240.290 C 133.608 240.290,133.524 240.080,133.360 239.824 C 133.197 239.568,132.198 237.890,131.140 236.095 L 129.217 232.833 123.956 232.833 C 121.062 232.833,118.695 232.891,118.695 232.962 M146.713 235.375 C 144.302 239.445,144.084 239.839,144.566 239.254 C 144.801 238.969,144.995 238.666,144.998 238.581 C 145.001 238.496,147.196 238.426,149.876 238.426 L 154.749 238.426 154.428 239.047 C 154.251 239.389,154.148 239.669,154.199 239.669 C 154.317 239.669,158.467 233.158,158.467 232.972 C 158.467 232.895,156.160 232.835,153.340 232.837 L 148.213 232.842 146.713 235.375 M197.658 237.027 C 197.681 239.335,197.732 240.593,197.771 239.824 L 197.844 238.426 214.397 238.426 L 230.949 238.426 231.022 239.824 C 231.062 240.593,231.113 239.335,231.135 237.027 L 231.176 232.833 214.397 232.833 L 197.618 232.833 197.658 237.027 M237.804 235.629 L 237.804 238.426 252.926 238.426 L 268.048 238.426 268.048 235.629 L 268.048 232.833 252.926 232.833 L 237.804 232.833 237.804 235.629 M276.171 237.956 C 276.195 240.778,276.245 242.038,276.281 240.756 L 276.347 238.426 282.740 238.426 L 289.133 238.426 289.798 239.461 C 290.164 240.031,290.503 240.497,290.552 240.497 C 290.671 240.497,290.560 240.310,288.090 236.354 L 285.956 232.936 281.041 232.881 L 276.126 232.825 276.171 237.956 M304.555 236.309 C 303.386 238.214,302.235 240.075,301.997 240.445 C 301.759 240.816,301.612 241.119,301.670 241.119 C 301.728 241.119,302.158 240.513,302.626 239.772 L 303.476 238.426 309.888 238.426 L 316.299 238.426 316.365 240.756 C 316.402 242.038,316.451 240.779,316.476 237.960 L 316.520 232.833 311.600 232.839 L 306.680 232.846 304.555 236.309 M123.226 240.186 C 123.337 240.414,123.581 240.787,123.766 241.015 L 124.104 241.429 123.900 241.015 C 123.788 240.787,123.545 240.414,123.360 240.186 L 123.022 239.772 123.226 240.186 M153.782 240.135 C 153.069 241.344,153.022 241.448,153.385 241.015 C 153.806 240.514,154.169 239.876,154.033 239.876 C 153.979 239.876,153.866 239.992,153.782 240.135 M98.141 240.235 C 98.628 240.279,99.374 240.278,99.798 240.233 C 100.223 240.189,99.824 240.153,98.912 240.154 C 98.001 240.155,97.654 240.191,98.141 240.235 M176.028 240.235 C 176.515 240.279,177.261 240.278,177.685 240.233 C 178.110 240.189,177.711 240.153,176.800 240.154 C 175.888 240.155,175.541 240.191,176.028 240.235 M246.548 242.828 L 246.591 244.951 246.659 242.933 L 246.727 240.915 257.439 240.860 L 268.151 240.804 257.328 240.754 L 246.504 240.704 246.548 242.828 M172.436 241.585 L 171.828 242.258 172.501 241.649 C 173.129 241.082,173.270 240.911,173.110 240.911 C 173.074 240.911,172.771 241.214,172.436 241.585 M209.914 242.983 C 209.914 244.065,209.949 244.508,209.992 243.967 C 210.034 243.426,210.034 242.540,209.992 241.999 C 209.949 241.458,209.914 241.901,209.914 242.983 M218.806 242.051 C 218.808 242.620,218.848 242.829,218.895 242.514 C 218.943 242.199,218.942 241.733,218.893 241.478 C 218.843 241.223,218.804 241.481,218.806 242.051 M182.099 241.404 C 182.310 241.597,184.360 242.565,184.360 242.472 C 184.360 242.355,182.382 241.326,182.158 241.326 C 182.078 241.326,182.052 241.361,182.099 241.404 M162.658 244.226 C 162.658 244.625,162.701 244.788,162.753 244.588 C 162.805 244.389,162.805 244.063,162.753 243.863 C 162.701 243.664,162.658 243.827,162.658 244.226 M103.271 258.272 C 105.679 259.282,106.629 260.548,106.355 262.380 C 105.643 267.127,95.971 266.667,89.699 261.588 C 89.303 261.267,88.874 261.005,88.746 261.005 C 88.483 261.005,83.617 266.681,83.522 267.100 C 83.403 267.621,86.359 269.788,89.015 271.127 C 90.925 272.089,90.889 271.903,88.969 270.889 C 88.058 270.408,86.846 269.688,86.277 269.290 L 85.241 268.566 98.894 268.512 C 106.403 268.483,112.602 268.515,112.669 268.584 C 112.864 268.782,110.563 270.824,109.345 271.534 C 108.734 271.890,108.315 272.183,108.414 272.186 C 108.913 272.199,111.132 270.582,112.237 269.400 C 114.480 267.002,115.297 264.591,115.124 260.873 C 114.970 257.553,115.728 257.896,108.574 257.909 C 102.607 257.920,102.458 257.930,103.271 258.272 M134.161 261.160 C 134.086 262.954,134.025 266.403,134.025 268.824 L 134.024 273.226 138.581 273.226 L 143.138 273.226 143.137 267.271 C 143.136 263.995,143.076 260.546,143.003 259.606 L 142.870 257.897 138.583 257.897 L 134.296 257.897 134.161 261.160 M181.515 258.500 C 183.627 259.529,184.254 260.410,184.110 262.145 C 183.710 266.964,175.420 266.965,168.234 262.148 C 166.769 261.166,166.455 261.030,166.182 261.256 C 165.675 261.676,161.160 267.065,161.160 267.250 C 161.160 267.698,167.025 271.579,167.680 271.564 C 167.797 271.562,167.302 271.242,166.580 270.853 C 165.859 270.464,164.752 269.790,164.121 269.356 L 162.974 268.566 169.953 268.511 C 173.792 268.481,180.010 268.481,183.770 268.511 L 190.606 268.566 189.442 269.739 C 188.802 270.384,187.682 271.221,186.953 271.599 C 186.225 271.976,185.663 272.320,185.705 272.361 C 185.943 272.599,188.596 270.855,189.748 269.705 C 192.526 266.930,193.618 262.856,192.734 258.571 L 192.595 257.897 186.458 257.908 L 180.321 257.918 181.515 258.500 M209.976 261.160 C 209.902 262.954,209.841 266.403,209.840 268.824 L 209.839 273.226 214.397 273.226 L 218.954 273.226 218.953 267.271 C 218.952 263.995,218.892 260.546,218.818 259.606 L 218.685 257.897 214.398 257.897 L 210.111 257.897 209.976 261.160 M237.804 263.180 L 237.804 268.462 253.030 268.462 L 268.255 268.462 268.255 270.739 L 268.255 273.016 252.978 273.071 L 237.701 273.125 253.081 273.176 L 268.462 273.226 268.462 269.187 L 268.462 265.148 257.618 265.148 L 246.775 265.148 246.639 262.940 C 246.565 261.726,246.504 260.095,246.504 259.315 L 246.504 257.897 242.154 257.897 L 237.804 257.897 237.804 263.180 M276.262 259.606 C 276.189 260.546,276.128 263.995,276.128 267.271 L 276.126 273.226 280.632 273.179 L 285.137 273.131 280.735 273.071 L 276.334 273.011 276.334 270.736 L 276.334 268.462 280.573 268.462 L 284.812 268.462 284.879 270.689 C 284.916 271.914,284.965 270.026,284.988 266.494 C 285.011 262.962,284.971 259.583,284.899 258.985 L 284.769 257.897 280.582 257.897 L 276.395 257.897 276.262 259.606 M292.515 258.364 C 293.236 259.728,296.062 264.112,296.221 264.112 C 296.485 264.112,300.155 258.415,300.155 258.006 C 300.155 257.946,298.381 257.897,296.212 257.897 L 292.269 257.897 292.515 258.364 M307.747 258.985 C 307.675 259.583,307.635 262.962,307.658 266.494 C 307.682 270.026,307.731 271.914,307.767 270.689 L 307.834 268.462 312.073 268.462 L 316.313 268.462 316.313 270.736 L 316.313 273.011 311.911 273.071 L 307.509 273.131 312.015 273.179 L 316.520 273.226 316.519 267.271 C 316.518 263.995,316.458 260.546,316.384 259.606 L 316.251 257.897 312.064 257.897 L 307.877 257.897 307.747 258.985 M142.931 270.741 L 142.931 273.019 138.581 273.019 L 134.231 273.019 134.231 270.741 L 134.231 268.462 138.581 268.462 L 142.931 268.462 142.931 270.741 M218.747 270.741 L 218.747 273.019 214.397 273.019 L 210.047 273.019 210.047 270.741 L 210.047 268.462 214.397 268.462 L 218.747 268.462 218.747 270.741 M91.271 272.078 C 91.625 272.241,92.185 272.428,92.514 272.493 C 93.026 272.594,93.008 272.570,92.387 272.327 C 91.269 271.888,90.478 271.712,91.271 272.078 M184.360 272.708 C 183.962 272.862,183.775 272.991,183.946 272.994 C 184.117 272.998,184.537 272.872,184.878 272.716 C 185.678 272.350,185.306 272.344,184.360 272.708 M97.411 273.576 C 97.610 273.628,97.936 273.628,98.136 273.576 C 98.335 273.524,98.172 273.482,97.773 273.482 C 97.374 273.482,97.211 273.524,97.411 273.576 M175.298 273.576 C 175.497 273.628,175.823 273.628,176.023 273.576 C 176.222 273.524,176.059 273.482,175.660 273.482 C 175.262 273.482,175.098 273.524,175.298 273.576 M180.476 273.576 C 180.676 273.628,181.002 273.628,181.201 273.576 C 181.401 273.524,181.238 273.482,180.839 273.482 C 180.440 273.482,180.277 273.524,180.476 273.576 M130.052 280.217 C 134.988 280.248,143.004 280.248,147.866 280.217 C 152.728 280.186,148.690 280.161,138.892 280.161 C 129.094 280.161,125.116 280.187,130.052 280.217 " stroke="none" fill="#49494c" fill-rule="evenodd"></path><path id="path3" d="M209.950 66.532 C 209.741 67.136,209.011 70.208,209.011 70.483 C 209.011 70.645,209.238 70.881,209.517 71.008 C 211.716 72.010,222.050 83.409,225.613 88.762 C 234.902 102.721,237.180 119.424,231.079 128.856 C 228.101 133.461,221.376 137.833,214.651 139.536 C 213.823 139.746,213.182 140.013,213.227 140.130 C 213.375 140.514,234.319 174.308,234.577 174.580 C 234.909 174.930,237.346 171.665,242.777 163.594 C 244.982 160.318,246.838 157.641,246.904 157.644 C 247.065 157.651,258.505 176.666,259.086 177.892 C 260.011 179.847,259.851 180.391,256.694 186.018 C 253.906 190.987,253.292 191.925,250.821 194.989 C 249.806 196.248,249.013 197.380,249.061 197.503 C 249.491 198.625,261.447 217.094,261.697 217.023 C 262.218 216.874,277.710 155.553,287.265 115.814 L 287.634 114.279 290.983 125.239 C 292.825 131.267,295.554 140.347,297.048 145.417 C 298.541 150.487,300.359 156.546,301.087 158.881 C 301.815 161.217,304.132 168.907,306.237 175.971 C 312.858 198.193,314.938 205.069,315.018 204.989 C 315.060 204.946,314.966 204.467,314.807 203.924 C 314.531 202.976,315.862 196.168,316.324 196.168 C 316.393 196.168,316.947 197.845,317.555 199.896 C 318.164 201.946,318.699 203.587,318.744 203.542 C 318.827 203.458,309.391 171.770,304.920 157.121 C 303.564 152.677,301.372 145.360,300.050 140.860 C 298.010 133.923,287.742 100.162,287.386 99.223 C 287.180 98.680,287.017 99.299,282.848 116.416 C 277.759 137.312,260.651 206.288,260.429 206.807 C 260.297 207.114,259.617 206.167,257.088 202.157 C 254.986 198.826,253.973 197.037,254.092 196.872 C 254.191 196.735,254.858 195.858,255.573 194.924 C 257.664 192.195,262.593 183.551,263.184 181.578 C 263.634 180.076,263.564 177.880,263.017 176.323 C 262.590 175.108,247.406 149.588,247.099 149.568 C 247.027 149.564,244.291 153.528,241.019 158.377 C 237.747 163.227,235.044 167.165,235.012 167.129 C 234.875 166.974,219.368 141.868,219.368 141.801 C 219.368 141.761,220.988 140.937,222.968 139.972 C 229.741 136.669,233.124 133.536,235.833 128.060 C 241.136 117.339,238.289 99.950,228.925 85.862 C 223.412 77.567,210.635 64.551,209.950 66.532 M207.788 75.136 C 207.674 75.567,206.884 78.710,206.032 82.121 L 204.483 88.323 205.779 89.889 C 213.563 99.300,214.448 111.292,207.626 114.912 C 205.930 115.812,204.620 116.142,200.834 116.625 C 199.014 116.858,197.466 117.115,197.393 117.198 C 197.241 117.372,190.989 142.369,190.989 142.805 C 190.989 142.965,192.558 145.507,194.477 148.454 C 196.395 151.400,200.931 158.564,204.557 164.373 C 213.058 177.993,215.489 181.838,218.988 187.199 C 220.564 189.614,221.854 191.685,221.854 191.801 C 221.854 192.103,218.354 194.865,216.116 196.328 C 203.629 204.494,188.983 205.464,177.086 198.915 C 176.800 198.758,170.411 224.996,170.692 225.170 C 172.444 226.253,182.487 227.308,189.746 227.172 C 207.292 226.843,219.474 222.419,230.435 212.393 C 231.659 211.273,232.910 210.152,233.216 209.902 L 233.772 209.447 238.429 216.468 C 241.216 220.669,243.278 223.577,243.562 223.707 C 244.308 224.049,261.287 224.007,261.156 223.663 C 261.100 223.519,257.319 217.486,252.753 210.256 L 244.451 197.111 244.908 196.547 C 245.159 196.237,246.372 194.743,247.604 193.228 C 250.687 189.431,255.826 181.016,255.826 179.764 C 255.826 179.301,246.995 164.578,246.717 164.578 C 246.612 164.578,245.304 166.386,243.810 168.596 C 239.440 175.061,234.519 181.169,234.062 180.696 C 233.973 180.604,227.931 170.883,220.635 159.093 L 207.370 137.658 211.142 136.689 C 224.890 133.155,230.786 127.226,230.754 116.968 C 230.708 102.555,224.496 90.054,210.994 77.208 L 207.994 74.353 207.788 75.136 M202.673 95.554 L 202.045 98.098 203.027 100.012 C 204.984 103.827,205.211 107.414,203.551 108.273 C 202.705 108.710,201.002 109.161,200.181 109.164 C 199.336 109.167,199.209 109.359,198.708 111.393 L 198.287 113.102 198.936 113.102 C 201.616 113.102,205.783 111.980,206.908 110.955 C 209.893 108.237,208.494 99.033,204.313 93.889 C 203.349 92.704,203.386 92.666,202.673 95.554 M285.067 140.290 C 283.454 146.813,278.157 168.143,273.295 187.692 C 268.433 207.240,264.515 223.390,264.588 223.580 C 264.725 223.938,274.432 224.115,276.367 223.795 C 277.309 223.640,276.989 224.867,279.979 209.943 C 281.281 203.449,282.420 197.809,282.512 197.411 C 282.669 196.724,282.721 196.688,283.493 196.721 C 284.750 196.776,302.686 200.707,303.192 201.039 C 303.727 201.389,303.384 200.336,307.100 213.046 C 308.765 218.741,310.225 223.518,310.345 223.662 C 310.586 223.953,316.727 224.057,316.727 223.770 C 316.727 223.685,315.311 223.615,313.579 223.615 L 310.430 223.615 310.132 222.654 C 309.839 221.712,309.859 221.590,311.153 216.388 C 312.492 211.005,312.649 210.584,312.898 211.719 C 312.975 212.069,313.084 212.309,313.139 212.253 C 313.230 212.162,300.095 168.011,297.323 159.089 C 296.703 157.095,294.752 150.570,292.988 144.588 C 289.703 133.454,288.171 128.431,288.061 128.431 C 288.027 128.431,286.679 133.767,285.067 140.290 M189.246 149.567 C 189.187 149.734,188.851 151.030,188.498 152.447 L 187.856 155.024 190.510 158.939 C 191.970 161.092,197.320 168.975,202.398 176.456 L 211.633 190.057 210.477 190.762 C 200.882 196.613,189.313 197.095,180.600 192.006 C 178.806 190.958,178.925 190.901,178.394 193.077 C 177.845 195.328,177.749 195.136,179.974 196.253 C 188.920 200.745,200.058 200.556,209.717 195.746 C 212.159 194.531,216.896 191.512,217.019 191.093 C 217.122 190.742,189.362 149.237,189.246 149.567 M293.023 165.407 C 293.543 167.229,295.028 172.216,296.324 176.489 C 299.041 185.451,299.712 187.753,299.634 187.842 C 299.379 188.134,285.448 183.390,285.448 183.012 C 285.448 182.778,285.917 180.306,286.491 177.518 C 288.810 166.253,289.171 164.399,289.681 161.125 C 289.973 159.249,290.212 157.386,290.212 156.985 C 290.212 155.458,290.535 156.068,291.293 159.027 C 291.724 160.713,292.503 163.584,293.023 165.407 M318.818 203.916 C 318.786 204.223,319.912 207.847,319.976 207.644 C 320.008 207.541,319.765 206.618,319.436 205.593 C 319.107 204.568,318.829 203.813,318.818 203.916 M315.070 205.377 C 315.070 205.714,317.217 212.732,317.296 212.653 C 317.379 212.571,315.305 205.463,315.151 205.299 C 315.107 205.252,315.070 205.287,315.070 205.377 M320.063 208.079 C 320.052 208.193,320.267 208.985,320.540 209.839 C 320.813 210.694,321.045 211.300,321.055 211.186 C 321.066 211.072,320.852 210.280,320.579 209.425 C 320.306 208.571,320.074 207.965,320.063 208.079 M321.109 211.704 C 321.109 211.875,321.234 212.341,321.388 212.740 C 321.541 213.138,321.667 213.325,321.667 213.154 C 321.667 212.983,321.541 212.517,321.388 212.118 C 321.234 211.719,321.109 211.533,321.109 211.704 M313.206 212.653 C 313.207 212.917,316.314 223.167,316.428 223.281 C 316.614 223.467,316.490 223.018,314.941 217.876 C 313.457 212.949,313.205 212.188,313.206 212.653 M317.370 213.050 C 317.360 213.164,317.574 213.956,317.847 214.811 C 318.120 215.665,318.352 216.271,318.363 216.157 C 318.373 216.044,318.159 215.251,317.886 214.397 C 317.613 213.542,317.381 212.936,317.370 213.050 M321.730 213.775 C 321.730 213.946,321.856 214.412,322.009 214.811 C 322.163 215.210,322.289 215.396,322.289 215.225 C 322.289 215.054,322.163 214.588,322.009 214.190 C 321.856 213.791,321.730 213.604,321.730 213.775 M322.352 215.847 C 322.352 216.018,322.477 216.484,322.631 216.882 C 322.784 217.281,322.910 217.468,322.910 217.297 C 322.910 217.126,322.784 216.660,322.631 216.261 C 322.477 215.862,322.352 215.676,322.352 215.847 M318.416 216.675 C 318.416 216.846,318.541 217.312,318.695 217.711 C 318.849 218.110,318.974 218.296,318.974 218.125 C 318.974 217.954,318.849 217.488,318.695 217.090 C 318.541 216.691,318.416 216.504,318.416 216.675 M322.959 217.815 C 322.952 217.929,323.130 218.581,323.353 219.265 C 323.577 219.948,323.704 220.185,323.635 219.790 C 323.499 219.004,322.978 217.482,322.959 217.815 M319.038 218.747 C 319.038 218.918,319.210 219.524,319.420 220.093 C 319.630 220.663,319.802 220.989,319.802 220.818 C 319.802 220.647,319.630 220.041,319.420 219.472 C 319.210 218.902,319.038 218.576,319.038 218.747 M319.866 221.440 C 319.866 221.611,320.038 222.216,320.249 222.786 C 320.459 223.356,320.631 223.682,320.631 223.511 C 320.631 223.340,320.459 222.734,320.249 222.165 C 320.038 221.595,319.866 221.269,319.866 221.440 M324.125 221.854 C 324.202 222.139,324.298 225.844,324.338 230.088 L 324.410 237.804 323.779 237.804 C 323.357 237.804,323.149 237.702,323.149 237.494 C 323.149 237.252,322.872 237.183,321.906 237.183 L 320.663 237.183 320.663 258.599 L 320.663 280.015 224.495 280.093 C 171.603 280.135,117.351 280.136,103.936 280.093 L 79.544 280.015 79.495 263.726 C 79.468 254.767,79.420 251.282,79.389 255.981 L 79.333 264.526 77.759 264.526 C 76.446 264.526,76.205 264.475,76.305 264.215 C 76.391 263.991,76.282 263.905,75.913 263.905 L 75.401 263.905 75.401 273.951 L 75.401 283.998 200.000 283.998 L 324.599 283.998 324.583 253.496 C 324.569 227.848,324.520 222.861,324.276 222.165 C 324.115 221.709,324.048 221.569,324.125 221.854 M86.108 250.078 C 87.824 253.280,90.780 254.936,98.413 256.970 C 101.936 257.909,104.040 258.707,105.235 259.558 C 105.574 259.799,105.852 259.949,105.852 259.889 C 105.852 259.697,104.112 258.598,103.263 258.254 C 102.471 257.934,102.709 257.918,108.593 257.908 L 114.751 257.897 114.877 258.467 C 115.096 259.460,115.180 259.483,115.068 258.519 C 114.631 254.758,111.135 251.633,105.225 249.723 L 102.959 248.990 94.243 248.990 L 85.526 248.990 86.108 250.078 M129.097 249.456 C 129.261 249.713,130.437 251.567,131.710 253.577 L 134.024 257.231 134.068 259.791 L 134.112 262.351 134.178 260.124 L 134.245 257.897 138.578 257.897 L 142.910 257.897 142.985 259.089 C 143.053 260.162,143.064 260.123,143.099 258.684 L 143.138 257.088 145.176 253.919 C 146.296 252.177,147.463 250.355,147.768 249.871 L 148.322 248.990 138.560 248.990 L 128.798 248.990 129.097 249.456 M163.441 249.146 C 163.447 249.646,164.821 251.560,165.871 252.533 C 167.788 254.308,170.623 255.509,176.558 257.063 C 177.906 257.416,179.490 257.888,180.079 258.112 C 181.336 258.589,181.554 258.617,180.839 258.208 C 180.381 257.946,181.034 257.911,186.469 257.905 C 192.156 257.898,192.624 257.925,192.708 258.260 C 192.757 258.459,192.761 258.343,192.717 258.001 C 192.280 254.629,188.761 251.624,183.037 249.735 L 180.781 248.990 172.110 248.990 C 167.341 248.990,163.440 249.060,163.441 249.146 M209.883 255.671 C 209.908 259.345,209.957 261.349,209.994 260.124 L 210.061 257.897 214.393 257.897 L 218.726 257.897 218.801 259.089 C 218.842 259.744,218.893 257.740,218.915 254.635 L 218.954 248.990 214.397 248.990 L 209.839 248.990 209.883 255.671 M237.804 253.444 L 237.804 257.897 242.147 257.897 L 246.490 257.897 246.557 260.124 L 246.624 262.351 246.668 259.606 L 246.712 256.862 256.137 256.862 L 265.562 256.862 265.562 252.926 L 265.562 248.990 251.683 248.990 L 237.804 248.990 237.804 253.444 M276.166 254.635 C 276.187 257.740,276.238 259.744,276.279 259.089 L 276.354 257.897 280.578 257.897 L 284.802 257.897 284.883 258.674 C 284.927 259.102,284.980 257.097,284.999 254.221 L 285.034 248.990 280.580 248.990 L 276.126 248.990 276.166 254.635 M289.522 254.221 C 292.915 259.387,293.910 260.798,292.810 258.881 L 292.244 257.897 296.200 257.897 C 298.375 257.897,300.155 257.939,300.155 257.989 C 300.155 258.040,299.952 258.436,299.704 258.870 C 298.714 260.597,299.767 259.101,302.978 254.218 L 306.346 249.094 301.542 249.038 C 297.401 248.990,296.705 249.027,296.503 249.303 C 296.293 249.590,296.256 249.590,296.147 249.307 C 296.043 249.035,295.325 248.990,291.057 248.990 L 286.088 248.990 289.522 254.221 M307.647 254.221 C 307.667 257.097,307.719 259.102,307.764 258.674 L 307.845 257.897 312.068 257.897 L 316.292 257.897 316.367 259.089 C 316.408 259.744,316.459 257.740,316.481 254.635 L 316.520 248.990 312.066 248.990 L 307.613 248.990 307.647 254.221 M182.082 258.956 C 182.481 259.195,183.032 259.591,183.306 259.835 C 183.581 260.080,183.735 260.157,183.648 260.007 C 183.440 259.647,181.875 258.519,181.585 258.520 C 181.459 258.520,181.683 258.716,182.082 258.956 M115.233 261.108 C 115.234 261.678,115.275 261.886,115.322 261.571 C 115.370 261.257,115.368 260.791,115.319 260.536 C 115.270 260.281,115.231 260.539,115.233 261.108 " stroke="none" fill="#292626" fill-rule="evenodd"></path><path id="path4" d="M175.660 88.348 C 175.157 88.861,174.792 89.280,174.849 89.280 C 174.906 89.280,175.364 88.861,175.867 88.348 C 176.371 87.835,176.736 87.416,176.679 87.416 C 176.622 87.416,176.163 87.835,175.660 88.348 M182.800 92.646 L 181.564 93.941 182.859 92.705 C 183.571 92.025,184.153 91.442,184.153 91.410 C 184.153 91.257,183.949 91.444,182.800 92.646 M177.204 93.061 L 176.385 93.941 177.266 93.122 C 178.084 92.361,178.241 92.180,178.085 92.180 C 178.051 92.180,177.654 92.576,177.204 93.061 M167.412 98.654 C 166.033 100.712,165.251 102.029,165.659 101.605 C 165.768 101.491,166.502 100.419,167.289 99.223 C 169.161 96.380,169.068 96.530,168.943 96.530 C 168.883 96.530,168.194 97.486,167.412 98.654 M171.517 100.052 C 171.274 100.394,171.121 100.673,171.178 100.673 C 171.235 100.673,171.481 100.394,171.724 100.052 C 171.968 99.710,172.120 99.430,172.063 99.430 C 172.006 99.430,171.761 99.710,171.517 100.052 M170.320 101.761 C 169.564 102.877,169.400 103.159,169.508 103.159 C 169.555 103.159,169.935 102.646,170.351 102.020 C 170.767 101.393,171.064 100.880,171.012 100.880 C 170.959 100.880,170.648 101.277,170.320 101.761 M197.501 101.761 L 196.893 102.434 197.566 101.826 C 197.936 101.491,198.239 101.188,198.239 101.152 C 198.239 100.992,198.068 101.133,197.501 101.761 M164.694 103.082 C 164.450 103.495,164.284 103.866,164.326 103.908 C 164.367 103.949,164.610 103.611,164.865 103.157 C 165.445 102.124,165.297 102.059,164.694 103.082 M173.253 104.247 C 172.540 105.456,172.494 105.560,172.857 105.127 C 173.278 104.626,173.641 103.988,173.505 103.988 C 173.451 103.988,173.337 104.104,173.253 104.247 M162.919 106.601 C 161.007 110.924,159.640 117.041,159.737 120.840 L 159.764 121.906 159.921 120.766 C 160.007 120.140,160.874 116.460,161.848 112.589 C 163.691 105.268,163.815 104.575,162.919 106.601 M171.414 107.302 C 171.237 107.644,171.139 107.923,171.196 107.923 C 171.253 107.923,171.444 107.644,171.621 107.302 C 171.798 106.960,171.896 106.680,171.839 106.680 C 171.782 106.680,171.591 106.960,171.414 107.302 M170.521 109.073 C 169.897 110.357,169.966 110.537,170.609 109.301 C 170.896 108.749,171.096 108.262,171.053 108.218 C 171.009 108.175,170.770 108.560,170.521 109.073 M187.053 112.545 C 187.053 112.581,187.356 112.884,187.727 113.219 L 188.400 113.827 187.791 113.154 C 187.224 112.526,187.053 112.385,187.053 112.545 M138.746 118.865 L 138.251 120.863 139.503 121.612 C 145.217 125.029,145.483 135.711,140.193 149.249 C 137.312 156.623,132.113 164.453,127.088 168.987 L 126.005 169.964 124.700 175.246 L 123.394 180.528 125.597 187.985 C 126.808 192.087,128.875 199.078,130.190 203.521 C 131.505 207.965,133.111 213.395,133.759 215.588 C 134.407 217.781,134.991 219.575,135.057 219.575 C 135.123 219.575,135.537 218.107,135.978 216.313 C 136.419 214.518,136.845 213.004,136.925 212.947 C 137.005 212.890,136.162 209.814,135.052 206.111 C 129.340 187.065,125.904 175.503,125.817 175.039 C 125.734 174.595,126.034 174.239,127.916 172.553 C 135.338 165.904,140.680 158.055,144.128 148.731 C 150.035 132.759,148.455 120.718,139.988 117.180 L 139.241 116.868 138.746 118.865 M163.694 118.074 C 163.694 118.472,163.736 118.635,163.789 118.436 C 163.841 118.237,163.841 117.910,163.789 117.711 C 163.736 117.512,163.694 117.675,163.694 118.074 M163.510 120.870 C 163.510 121.781,163.547 122.129,163.591 121.641 C 163.634 121.154,163.634 120.408,163.589 119.984 C 163.545 119.560,163.509 119.959,163.510 120.870 M167.444 120.974 C 167.444 121.828,167.481 122.178,167.525 121.750 C 167.570 121.323,167.570 120.624,167.525 120.197 C 167.481 119.770,167.444 120.119,167.444 120.974 M132.689 143.205 C 130.201 153.251,128.118 161.611,128.059 161.781 C 128.000 161.952,128.529 161.393,129.234 160.539 C 138.182 149.700,143.172 129.183,137.792 125.352 L 137.212 124.939 132.689 143.205 M170.680 129.933 C 171.539 130.847,171.724 131.012,171.724 130.856 C 171.724 130.823,171.282 130.380,170.741 129.872 L 169.757 128.949 170.680 129.933 M177.579 134.546 C 177.666 134.642,177.486 134.983,177.178 135.304 C 176.870 135.625,176.665 135.888,176.722 135.888 C 177.076 135.888,177.947 134.676,177.697 134.531 C 177.545 134.443,177.492 134.450,177.579 134.546 M163.635 137.908 L 162.921 138.685 163.698 137.971 C 164.421 137.306,164.570 137.131,164.411 137.131 C 164.377 137.131,164.027 137.481,163.635 137.908 M172.854 139.876 L 172.035 140.756 172.916 139.937 C 173.734 139.176,173.891 138.995,173.734 138.995 C 173.701 138.995,173.304 139.392,172.854 139.876 M169.642 143.294 L 168.928 144.070 169.705 143.357 C 170.132 142.964,170.482 142.614,170.482 142.580 C 170.482 142.422,170.306 142.571,169.642 143.294 M182.807 150.181 C 181.101 151.890,179.751 153.288,179.808 153.288 C 179.865 153.288,181.308 151.890,183.014 150.181 C 184.720 148.472,186.069 147.074,186.012 147.074 C 185.955 147.074,184.513 148.472,182.807 150.181 M184.254 153.962 L 181.357 156.914 184.309 154.016 C 187.051 151.325,187.354 151.010,187.206 151.010 C 187.176 151.010,185.848 152.338,184.254 153.962 M149.909 154.981 C 143.371 164.849,139.948 174.063,138.763 184.982 C 138.294 189.306,138.961 202.148,139.616 201.412 C 139.977 201.006,142.103 191.763,142.103 190.600 C 142.103 183.386,144.380 173.952,147.886 166.644 C 148.653 165.047,149.238 163.612,149.186 163.457 C 149.130 163.288,149.185 163.231,149.323 163.317 C 149.465 163.405,149.512 163.348,149.444 163.171 C 149.383 163.012,149.938 160.469,150.677 157.520 C 151.416 154.571,151.988 152.126,151.948 152.086 C 151.908 152.046,150.991 153.349,149.909 154.981 M179.585 158.830 L 178.871 159.606 179.648 158.893 C 180.371 158.228,180.520 158.053,180.362 158.053 C 180.327 158.053,179.978 158.402,179.585 158.830 M165.365 180.839 C 165.365 181.466,165.404 181.722,165.451 181.409 C 165.499 181.095,165.499 180.583,165.451 180.269 C 165.404 179.956,165.365 180.212,165.365 180.839 M173.020 180.735 C 173.022 181.191,173.064 181.353,173.114 181.095 C 173.163 180.838,173.162 180.465,173.110 180.267 C 173.058 180.069,173.017 180.280,173.020 180.735 M117.885 202.514 L 114.278 216.949 114.857 220.075 C 115.175 221.794,115.480 223.317,115.534 223.459 C 115.610 223.661,117.480 223.718,123.918 223.718 L 132.204 223.718 132.066 223.166 C 131.822 222.193,121.810 188.829,121.647 188.446 C 121.546 188.209,120.215 193.188,117.885 202.514 M85.270 242.314 C 85.175 242.467,85.083 244.244,85.120 245.210 L 85.137 245.676 89.666 245.676 L 94.195 245.676 93.888 244.743 C 93.653 244.030,93.630 243.614,93.790 242.982 L 94.000 242.154 89.685 242.154 C 87.311 242.154,85.324 242.226,85.270 242.314 M107.632 242.942 C 108.305 243.375,108.965 243.795,109.098 243.876 C 109.248 243.967,109.584 243.664,109.972 243.089 L 110.602 242.154 108.506 242.154 L 106.409 242.154 107.632 242.942 M125.773 243.915 L 126.826 245.676 131.668 245.676 C 134.331 245.676,136.510 245.618,136.510 245.547 C 136.510 245.475,136.067 244.686,135.526 243.791 L 134.542 242.165 129.631 242.160 L 124.721 242.154 125.773 243.915 M141.750 243.923 L 140.672 245.676 145.479 245.674 L 150.285 245.672 151.369 243.913 L 152.454 242.154 147.641 242.162 L 142.828 242.170 141.750 243.923 M162.947 242.802 C 162.875 243.158,162.817 243.950,162.817 244.562 L 162.817 245.676 167.309 245.676 C 171.675 245.676,171.816 245.689,172.323 246.142 C 172.826 246.592,172.825 246.585,172.284 245.919 C 171.590 245.065,171.439 244.489,171.565 243.179 L 171.664 242.154 167.370 242.154 L 163.076 242.154 162.947 242.802 M184.391 242.253 C 184.445 242.308,185.076 242.732,185.793 243.195 C 187.232 244.125,187.140 244.145,187.982 242.724 L 188.320 242.154 186.306 242.154 C 185.198 242.154,184.336 242.199,184.391 242.253 M210.047 243.915 L 210.047 245.676 214.397 245.676 L 218.747 245.676 218.747 243.915 L 218.747 242.154 214.397 242.154 L 210.047 242.154 210.047 243.915 M237.804 243.915 L 237.804 245.676 242.154 245.676 L 246.504 245.676 246.504 243.915 L 246.504 242.154 242.154 242.154 L 237.804 242.154 237.804 243.915 M276.334 243.915 L 276.334 245.676 285.048 245.676 L 293.762 245.676 293.368 245.106 C 293.151 244.793,292.623 244.001,292.194 243.345 L 291.415 242.154 283.874 242.154 L 276.334 242.154 276.334 243.915 M300.822 242.724 C 300.604 243.037,300.086 243.830,299.671 244.485 L 298.918 245.676 307.615 245.676 L 316.313 245.676 316.313 243.915 L 316.313 242.154 308.766 242.154 L 301.219 242.154 300.822 242.724 M307.563 247.695 C 307.689 249.028,307.771 249.136,307.796 248.006 C 307.809 247.408,307.745 246.919,307.654 246.919 C 307.563 246.919,307.522 247.268,307.563 247.695 M284.843 248.110 C 284.861 249.193,284.961 249.105,285.081 247.903 C 285.123 247.475,285.083 247.126,284.992 247.126 C 284.901 247.126,284.834 247.569,284.843 248.110 M251.231 248.938 C 253.888 248.971,258.176 248.971,260.760 248.938 C 263.344 248.905,261.170 248.878,255.930 248.878 C 250.689 248.879,248.574 248.905,251.231 248.938 M91.578 271.982 C 94.904 273.926,105.389 273.930,108.338 271.987 C 108.545 271.851,105.750 271.784,99.948 271.786 C 94.468 271.788,91.370 271.860,91.578 271.982 M134.231 272.398 L 134.231 273.019 138.581 273.019 L 142.931 273.019 142.931 272.398 L 142.931 271.776 138.581 271.776 L 134.231 271.776 134.231 272.398 M170.026 272.197 C 174.971 273.953,181.683 273.964,185.603 272.220 L 186.535 271.806 177.732 271.806 L 168.928 271.807 170.026 272.197 M210.047 272.398 L 210.047 273.019 214.397 273.019 L 218.747 273.019 218.747 272.398 L 218.747 271.776 214.397 271.776 L 210.047 271.776 210.047 272.398 M237.804 272.398 L 237.804 273.019 253.030 273.019 L 268.255 273.019 268.255 272.398 L 268.255 271.776 253.030 271.776 L 237.804 271.776 237.804 272.398 M276.334 272.398 L 276.334 273.019 280.580 273.019 L 284.827 273.019 284.827 272.398 L 284.827 271.776 280.580 271.776 L 276.334 271.776 276.334 272.398 M307.820 272.398 L 307.820 273.019 312.066 273.019 L 316.313 273.019 316.313 272.398 L 316.313 271.776 312.066 271.776 L 307.820 271.776 307.820 272.398 " stroke="none" fill="#54545c" fill-rule="evenodd"></path></g></svg>